# xmcd
#
# Track frame offsets:
#        150
#        16769
#        29524
#        46604
#        71667
#        92152
#        107689
#        121438
#        142367
#        161784
#        176239
#        189043
#        213000
#
# Disc length: 3014 seconds
#
# Revision: 0
# Processed by: cddbd v1.5PL3 Copyright (c) Steve Scherf et al.
# Submitted via: ExactAudioCopy v0.95a4
#
DISCID=b10bc40d
DTITLE=Courtney Love - American's Sweetheart
DYEAR=2004
DGENRE=Alternative
TTITLE0=Mono
TTITLE1="But Julian, I'm A Little Older Than You "
TTITLE2=Hold On To Me
TTITLE3=Sunset Strip
TTITLE4=All The Drugs
TTITLE5=Almost Golden
TTITLE6=I'll Do Anything
TTITLE7=Uncool
TTITLE8="Plague,The"
TTITLE9=Hello
TTITLE10=Zeppelin Song
TTITLE11=Never Gonna Be The Same
TTITLE12=Fly
EXTD=
EXTT0=
EXTT1=
EXTT2=
EXTT3=
EXTT4=
EXTT5=
EXTT6=
EXTT7=
EXTT8=
EXTT9=
EXTT10=
EXTT11=
EXTT12=
PLAYORDER=
